<svg width="20" height="23" viewBox="0 0 20 23" fill="none" xmlns="http://www.w3.org/2000/svg">
<path d="M16.5 9.89127V9.56362C16.5 5.63182 13.6 2.46454 10 2.46454C6.4 2.46454 3.5 5.63182 3.5 9.56362V9.89127C2.3 10.4373 1.5 11.8572 1.5 13.3862V14.0415C1.5 16.1166 3 17.8641 5 17.8641C5.1 17.8641 5.2 17.8641 5.2 17.8641V9.56362C5.1 9.56362 5 9.56362 5 9.56362C4.8 9.56362 4.6 9.56362 4.4 9.56362C4.4 6.1779 6.9 3.44749 10 3.44749C13.1 3.44749 15.6 6.1779 15.6 9.56362C15.4 9.56362 15.2 9.56362 15 9.56362C14.9 9.56362 14.8 9.56362 14.8 9.56362V16.7719C14.1 17.9733 13.1 18.9562 11.8 19.3931C11.6 19.1747 11.4 19.0655 11.1 19.0655H8.8C8.3 19.0655 7.9 19.5023 7.9 20.0484C7.9 20.5945 8.3 21.0314 8.8 21.0314H11.1C11.6 21.0314 11.9 20.7037 12 20.1576C13.3 19.7208 14.4 18.7378 15.2 17.5364C17 17.4272 18.5 15.789 18.5 13.8231V13.1678C18.5 11.8572 17.7 10.4373 16.5 9.89127Z" fill="#1F8949"/>
</svg>
